<svg xmlns="http://www.w3.org/2000/svg" width="31.348" height="29.188" viewBox="0 0 31.348 29.188">
  <path id="twitter" d="M31.23,6.5a11.786,11.786,0,0,1-3.166,1.022c.509-.1,1.262-1.141,1.563-1.564a6.88,6.88,0,0,0,1.054-2.17c.027-.062.049-.14-.006-.187a.166.166,0,0,0-.168.017,15.1,15.1,0,0,1-3.761,1.628.234.234,0,0,1-.26-.078,3.283,3.283,0,0,0-.328-.381,6.575,6.575,0,0,0-1.822-1.262,5.691,5.691,0,0,0-2.795-.509,6.114,6.114,0,0,0-2.652.847,7.088,7.088,0,0,0-2.138,1.973,7.836,7.836,0,0,0-1.277,2.892,8.876,8.876,0,0,0-.069,3.053c.022.171.008.194-.128.171A19.4,19.4,0,0,1,2.351,4.517c-.151-.195-.233-.195-.357.014C.473,7.109,1.211,11.25,3.111,13.285c.254.271.513.543.794.79a5.986,5.986,0,0,1-2.494-.79c-.151-.107-.226-.045-.24.147a4.987,4.987,0,0,0,.041.837A7.415,7.415,0,0,0,5.3,20.242a3.539,3.539,0,0,0,.829.286,6.554,6.554,0,0,1-2.446.086c-.178-.04-.247.061-.178.255a7.121,7.121,0,0,0,5.139,4.864c.233.047.466.047.7.109-.014.023-.027.023-.041.047-.578.994-2.578,1.735-3.51,2.1a11.241,11.241,0,0,1-5.331.771c-.286-.048-.347-.044-.424,0s-.01.133.082.216c.362.271.733.512,1.11.744A16.468,16.468,0,0,0,4.79,31.334a17.43,17.43,0,0,0,18.427-4.87c3.774-4.241,5.1-10.089,5.1-15.945,0-.228.239-.354.382-.476a13.423,13.423,0,0,0,2.5-2.948.941.941,0,0,0,.155-.565V6.5C31.348,6.406,31.358,6.434,31.23,6.5Z" transform="translate(0 -2.999)" fill="#fff" fill-rule="evenodd"/>
</svg>
