<svg id="icone-site" xmlns="http://www.w3.org/2000/svg" width="163.984" height="147.54" viewBox="0 0 163.984 147.54">
  <rect id="Rectangle_33" data-name="Rectangle 33" width="43.691" height="9.24" transform="translate(29.732 19.084)" fill="#fff"/>
  <path id="Path_7" data-name="Path 7" d="M245.911,61.183a5.783,5.783,0,1,0-4.081-1.694A5.816,5.816,0,0,0,245.911,61.183Z" transform="translate(-113.602 -31.702)" fill="#fff"/>
  <path id="Path_8" data-name="Path 8" d="M206.457,61.183a5.783,5.783,0,1,0-4.081-1.694A5.816,5.816,0,0,0,206.457,61.183Z" transform="translate(-94.937 -31.702)" fill="#fff"/>
  <path id="Path_9" data-name="Path 9" d="M167,61.183a5.783,5.783,0,1,0-4.081-1.694A5.817,5.817,0,0,0,167,61.183Z" transform="translate(-76.273 -31.702)" fill="#fff"/>
  <path id="Path_10" data-name="Path 10" d="M0,15.6v147.54H163.984V15.6Zm152.434,11.55V51.462H11.55V27.153ZM11.55,151.593V63.012H152.434v88.582H11.55Z" transform="translate(0 -15.603)" fill="#fff"/>
  <path id="Path_11" data-name="Path 11" d="M90.624,167.8l-.678,22.319,22.317-.681,48.646-48.646-21.638-21.635Zm17.695,12.514-8.84.27.269-8.841,24.416-24.415,8.571,8.57Zm39.522-39.521-8.571,8.571L130.7,140.8l8.571-8.571Z" transform="translate(-42.551 -64.592)" fill="#fff"/>
</svg>
