<svg id="icone-resp" xmlns="http://www.w3.org/2000/svg" width="150" height="120" viewBox="0 0 150 120">
  <path id="Path_10" data-name="Path 10" d="M150,114.084V6.7H0V114.084H61.224V121h-32v5.7h89.613V121H87.52v-6.912ZM10.971,98.274V18.959H139.025v79.3H10.971Z" transform="translate(0 -6.699)" fill="#0041a4"/>
  <path id="Path_11" data-name="Path 11" d="M39.781,25.084H14.7l-7.431.378v5.111H56.24V25.084H39.781Zm8.037,3.376H32.341V27.433H47.818Z" transform="translate(21.145 38.287)" fill="#0041a4"/>
  <path id="Path_12" data-name="Path 12" d="M13.908,16.247H57.814v1.445h3.871v-5.91H10.04V51.036H51.58V46.58H13.908Z" transform="translate(25.366 8.964)" fill="#0041a4"/>
  <path id="Path_13" data-name="Path 13" d="M30.245,18.361h19.12v6.987h3.887V14.468h-26.9V54.805H41.66V51.489A1.294,1.294,0,1,1,40.366,50.2a1.292,1.292,0,0,1,1.294,1.291v-3.37H30.242V18.361Z" transform="translate(52.813 13.607)" fill="#0041a4"/>
  <path id="Path_14" data-name="Path 14" d="M32.883,50.844H51.692V19.2H32.883Zm9.642-1.361A1.085,1.085,0,1,1,43.607,48.4,1.088,1.088,0,0,1,42.525,49.484ZM42.7,20.513a.454.454,0,1,1-.455.455A.453.453,0,0,1,42.7,20.513ZM40,22.032h5.414v.437H40Zm-4.1,1.993,12.776-.005V45.757c-4.884.021-10.349.043-12.776.021Z" transform="translate(63.571 22.113)" fill="#0041a4"/>
</svg>
