<svg id="otimizado-icone" xmlns="http://www.w3.org/2000/svg" width="150" height="120" viewBox="0 0 150 120">
  <path id="Path_6" data-name="Path 6" d="M36.238,43.1a8.086,8.086,0,0,0,0-16.171L0,0,28.239,35.518A8.057,8.057,0,0,0,36.238,43.1Z" transform="translate(115.896 48.947) rotate(101)" fill="#0041a4"/>
  <rect id="Rectangle_38" data-name="Rectangle 38" width="67.54" height="9.605" transform="translate(41.088 107.395)" fill="#0041a4"/>
  <path id="Path_7" data-name="Path 7" d="M128.033,62.3c-14.166-15.264-33-23.67-53.033-23.67S36.132,47.039,21.967,62.3A83.546,83.546,0,0,0,0,119.447a85.284,85.284,0,0,0,9.377,39.186H23.4l10.253-6.379L29.12,143.8l-13.183,8.2a75.555,75.555,0,0,1-7.289-32.559c0-2.074.087-4.126.249-6.156l15.719,2.987,1.573-9.61-15.9-3.022a73.116,73.116,0,0,1,18.1-35.023L39.158,82.461,46.1,76.189,35.238,62.247A63.208,63.208,0,0,1,70.472,48.122V66.63h9.056V48.122a63.216,63.216,0,0,1,35.234,14.125L103.9,76.189l6.937,6.272,10.776-13.838a73.122,73.122,0,0,1,18.1,35.023l-15.9,3.022,1.573,9.609L141.1,113.29c.161,2.03.249,4.082.249,6.156a75.542,75.542,0,0,1-7.288,32.559l-13.184-8.2-4.527,8.45,10.252,6.378h14.018A85.279,85.279,0,0,0,150,119.446,83.544,83.544,0,0,0,128.033,62.3Z" transform="translate(0 -38.633)" fill="#0041a4"/>
</svg>
