<svg xmlns="http://www.w3.org/2000/svg" width="150" height="120" viewBox="0 0 150 120">
  <g id="responsivo-icone" transform="translate(0 -4)">
    <path id="Path_10" data-name="Path 10" d="M150,110.765v4.617c0,2.549-2.58,4.617-5.772,4.617h-5.772c-3.186,0-5.772-2.064-5.772-4.617s2.58-4.617,5.772-4.617c0-2.549,2.58-4.617,5.772-4.617S150,108.212,150,110.765ZM144.228,50.58c-3.186,0-5.772,2.064-5.772,4.613v9.6c0,2.549,2.58,4.613,5.772,4.613S150,67.346,150,64.8V55.2C150,52.649,147.42,50.58,144.228,50.58Zm0-27.781c-3.186,0-5.772,2.069-5.772,4.617v9.6c0,2.549,2.58,4.617,5.772,4.617S150,39.56,150,37.011v-9.6C150,24.863,147.42,22.8,144.228,22.8Zm0,55.563c-3.186,0-5.772,2.064-5.772,4.617v9.6c0,2.549,2.58,4.617,5.772,4.617S150,95.132,150,92.579v-9.6C150,80.426,147.42,78.362,144.228,78.362Zm0-78.362h-5.772c-3.186,0-5.772,2.069-5.772,4.617s2.58,4.617,5.772,4.617c0,2.549,2.58,4.617,5.772,4.617S150,11.779,150,9.23V4.617C150,2.069,147.42,0,144.228,0Zm-40.5,9.23h12c3.186,0,5.772-2.069,5.772-4.617S118.92,0,115.728,0h-12c-3.186,0-5.772,2.069-5.772,4.617S100.542,9.23,103.728,9.23Zm-69.462,0h12c3.186,0,5.772-2.069,5.772-4.617S49.452,0,46.272,0h-12C31.08,0,28.5,2.069,28.5,4.617S31.08,9.23,34.266,9.23ZM69,9.23H81c3.186,0,5.766-2.069,5.766-4.617S84.186,0,81,0H69c-3.186,0-5.766,2.069-5.766,4.617S65.814,9.23,69,9.23ZM5.772,13.847c3.186,0,5.772-2.069,5.772-4.617,3.186,0,5.772-2.069,5.772-4.617S14.724,0,11.538,0H5.772C2.586,0,0,2.069,0,4.617V9.235C0,11.779,2.586,13.847,5.772,13.847Zm0,27.781c3.186,0,5.772-2.069,5.772-4.617v-9.6c0-2.549-2.586-4.617-5.772-4.617S0,24.863,0,27.412v9.6C0,39.56,2.586,41.629,5.772,41.629Zm109.956,69.136h-12c-3.186,0-5.772,2.064-5.772,4.617s2.58,4.617,5.772,4.617h12c3.186,0,5.772-2.064,5.772-4.617S118.92,110.765,115.728,110.765ZM113.94,27.417l-35.7,3.566c-1.578.154-1.944,1.022-.828,1.915L89.64,42.68,73.6,55.193,55.483,69.405H11.544L11.538,55.2c0-2.549-2.586-4.613-5.772-4.613S0,52.649,0,55.2v9.6c0,.821.007.043,0,2.213.007,2.021,0,1.4,0,2.218v46.155C0,117.931,2.586,120,5.772,120H66.18s1.8,0,2.82,0H81c3.186,0,5.766-2.064,5.766-4.617S84.186,110.76,81,110.76H63.234v-32.4l34.128-29.5,12.216,9.772c1.128.9,2.2.6,2.4-.662l4.458-28.559C116.646,28.165,115.512,27.258,113.94,27.417Z" transform="translate(0 4)" fill="#0041a4"/>
  </g>
</svg>
