<svg xmlns="http://www.w3.org/2000/svg" width="150" height="120" viewBox="0 0 150 120">
  <g id="seguro-icone" transform="translate(-28.104 -25.873)">
    <path id="Path_8" data-name="Path 8" d="M141.27.139,0-.127S0,3.207,0,6.992V113.011c0,1.76-.078,5.026,0,6.853,3.4.021,6.036,0,8.567,0l136.658-.016h4.74V.139ZM94.584,12.927a2.722,2.722,0,0,1,2.969-2.375h8.593a2.722,2.722,0,0,1,2.969,2.375V19.8a2.722,2.722,0,0,1-2.969,2.375H97.553A2.722,2.722,0,0,1,94.584,19.8Zm-23.756,0A2.722,2.722,0,0,1,73.8,10.553h8.593a2.722,2.722,0,0,1,2.969,2.375V19.8a2.722,2.722,0,0,1-2.969,2.375H73.8A2.722,2.722,0,0,1,70.828,19.8V12.927Zm62.042,91.049a2.654,2.654,0,0,1-2.895,2.315H19.86a2.654,2.654,0,0,1-2.895-2.315V32.822a2.654,2.654,0,0,1,2.895-2.316H129.976a2.654,2.654,0,0,1,2.895,2.316Zm0-84.176a2.722,2.722,0,0,1-2.969,2.375h-8.593a2.722,2.722,0,0,1-2.969-2.375V12.927a2.722,2.722,0,0,1,2.969-2.375H129.9a2.722,2.722,0,0,1,2.969,2.375Z" transform="translate(28.139 26)" fill="#0041a4"/>
    <path id="Path_9" data-name="Path 9" d="M113.086,101.484h-1.434V96.3a12.129,12.129,0,0,0-24.255,0v5.185H85.963a2.625,2.625,0,0,0-2.647,2.6v21.488a2.625,2.625,0,0,0,2.647,2.6h27.123a2.625,2.625,0,0,0,2.647-2.6V104.087A2.625,2.625,0,0,0,113.086,101.484ZM93.962,96.3a5.563,5.563,0,0,1,11.124,0v4.943H93.962V96.3Zm8.133,18.783v4.271a2.572,2.572,0,0,1-5.142,0v-4.27a4.057,4.057,0,0,1-1.587-3.211,4.159,4.159,0,0,1,8.317,0A4.056,4.056,0,0,1,102.1,115.082Z" transform="translate(3.334 -8.342)" fill="#0041a4"/>
  </g>
</svg>
